<svg id="Layer_1" data-name="Layer 1" xmlns="http://www.w3.org/2000/svg" viewBox="0 0 1617.28 479.36"><defs><style>.cls-1{fill:#231f20;}.cls-2{fill:#58595b;}.cls-3{fill:#fff200;}.cls-4{fill:#fff;}.cls-5{fill:#8b5e3c;}.cls-6{fill:#808285;}.cls-7{fill:#939598;}</style></defs><path class="cls-1" d="M150.48,135.81l-5.84,15.71a20.16,20.16,0,0,0-5.37-.66c-1.87,0-7.25,1.06-14.26,1.06-28.27,0-42.29-17.16-42.29-47.79,0-30.23,16.12-46.73,42.53-46.73,5.37,0,11.68.93,14.72.93a37,37,0,0,0,6.07-.66l4.44,14.78-4,.66c-2.57-3.7-6.31-5.41-17.06-5.41-14.72,0-22.89,12.67-22.89,36.43,0,26.53,6.07,37.23,21.72,37.23,11.22,0,15.42-1.59,18.23-6.21Z" transform="translate(-55.36 -57.4)"/><path class="cls-1" d="M232.49,138.32l-6.55,13.33c-2.33-.66-4.9-.79-12.15-.79H167.07V149c4.2,0,6.07-1.19,6.07-3.69V82.61c0-2.5-1.4-3.82-6.07-3.82V77.07h35v1.72c-4.9,0-7,1.32-7,3.82v59.14h22.43c5.61,0,10.28-1.32,11.92-4Z" transform="translate(-55.36 -57.4)"/><path class="cls-1" d="M319.87,150.86H287.39V149c3.74,0,5.37-.92,5.37-2a6.39,6.39,0,0,0-.46-2.24l-1.87-6.21a62.92,62.92,0,0,1-11.22.8,61.83,61.83,0,0,1-11-.8l-1.4,6.08c-.23,1.18-.47,2.11-.47,2.37,0,1.06,1.4,2,5.14,2v1.85H241.36V149c3.27,0,4.91-1,5.38-2.77l20.09-63a10.55,10.55,0,0,0,.47-2.64c0-1-.7-1.84-3.51-1.84V77.07h33.88v1.72c-2.8,0-3.27.79-3.27,2a13.33,13.33,0,0,0,.47,2.9l19.39,62.44c.7,2.37,2.1,2.9,5.61,2.9ZM280.15,93.18l-9.35,35.9a30.39,30.39,0,0,0,8.65,1.06,42.16,42.16,0,0,0,9.11-1.06Z" transform="translate(-55.36 -57.4)"/><path class="cls-1" d="M338.32,150.86a27,27,0,0,0-5.14.53l-4-15.71,4.2-.53c2.57,4.36,8.65,6.73,18.23,6.73,9.11,0,14-2.37,14-7.92,0-4.62-4.21-8.18-11.22-13.72l-9.81-7.92c-11-8.85-14-12.41-14-19.54,0-10,11.68-16.5,30.37-16.5,4.91,0,9.58.92,14.49.92a42.76,42.76,0,0,0,5.14-.26l4,12.94-3.5.52c-3.27-3.17-7.71-4.62-16.36-4.62-7.24,0-12.38,2.12-12.38,6.74,0,2.9,3.5,6.07,7,9l12.38,10c9.11,7.53,15.19,13.73,15.19,22.71,0,11.61-11.22,17.69-31.78,17.69C349.54,151.92,343.93,150.86,338.32,150.86Z" transform="translate(-55.36 -57.4)"/><path class="cls-1" d="M405.84,150.86a27,27,0,0,0-5.14.53l-4-15.71,4.2-.53c2.57,4.36,8.65,6.73,18.23,6.73,9.11,0,14-2.37,14-7.92,0-4.62-4.21-8.18-11.22-13.72l-9.81-7.92c-11-8.85-14-12.41-14-19.54,0-10,11.68-16.5,30.37-16.5,4.91,0,9.58.92,14.49.92a42.76,42.76,0,0,0,5.14-.26l4,12.94-3.5.52c-3.27-3.17-7.71-4.62-16.36-4.62-7.24,0-12.38,2.12-12.38,6.74,0,2.9,3.5,6.07,7,9l12.38,10c9.11,7.53,15.19,13.73,15.19,22.71,0,11.61-11.22,17.69-31.78,17.69C417.05,151.92,411.45,150.86,405.84,150.86Z" transform="translate(-55.36 -57.4)"/><path class="cls-1" d="M500.69,150.86H466.82V149c4.2,0,6.07-1.19,6.07-3.69V82.61c0-2.5-1.4-3.82-6.07-3.82V77.07h33.87v1.72c-4.9,0-5.84,1.32-5.84,3.82v62.71c0,2.37,1.17,3.69,5.84,3.69Z" transform="translate(-55.36 -57.4)"/><path class="cls-1" d="M578.26,137.92l-5.6,13.73a27.17,27.17,0,0,0-5.61-.39c-4,0-7.71.66-12.15.66-26.87,0-38.55-14-38.55-38.28,0-24,13.78-37.49,38.78-37.49,4.91,0,9.82.79,12.62.79a37.56,37.56,0,0,0,5.37-.53L578,89.48l-3.27.79c-3-3.17-6.78-4.62-14.25-4.62-13.09,0-21.73,9-21.73,28,0,21.25,7.24,28.64,20.56,28.64,8.41,0,13.08-1.85,15.42-4.88Z" transform="translate(-55.36 -57.4)"/><path class="cls-1" d="M668.68,150.86H636.21V149c3.73,0,5.37-.92,5.37-2a6.27,6.27,0,0,0-.47-2.24l-1.87-6.21a62.8,62.8,0,0,1-11.21.8,61.75,61.75,0,0,1-11-.8l-1.41,6.08c-.23,1.18-.46,2.11-.46,2.37,0,1.06,1.4,2,5.14,2v1.85H590.18V149c3.27,0,4.9-1,5.37-2.77l20.09-63a10.11,10.11,0,0,0,.47-2.64c0-1-.7-1.84-3.5-1.84V77.07h33.88v1.72c-2.81,0-3.28.79-3.28,2a14,14,0,0,0,.47,2.9l19.39,62.44c.71,2.37,2.11,2.9,5.61,2.9ZM629,93.18l-9.34,35.9a30.36,30.36,0,0,0,8.64,1.06,42.16,42.16,0,0,0,9.11-1.06Z" transform="translate(-55.36 -57.4)"/><path class="cls-1" d="M746,138.32l-6.54,13.33c-2.33-.66-4.9-.79-12.15-.79H680.59V149c4.21,0,6.08-1.19,6.08-3.69V82.61c0-2.5-1.4-3.82-6.08-3.82V77.07h35v1.72c-4.91,0-7,1.32-7,3.82v59.14h22.43c5.61,0,10.28-1.32,11.92-4Z" transform="translate(-55.36 -57.4)"/><path class="cls-1" d="M874.75,73.51l-3.27.52c-2.1-3-4.91-4.35-11.69-4.35h-14V144c0,3.3,2.57,5,7.71,5v1.85H815.64V149c4.9,0,7.71-1.71,7.71-5V69.68H810c-5.84,0-10.28,1.19-11.92,4.35l-3.5-.52,4.44-16c2.1.66,5.14,1.06,10.28,1.06H861a30.39,30.39,0,0,0,9.12-1.06Z" transform="translate(-55.36 -57.4)"/><path class="cls-1" d="M951.15,138.85l-5.84,12.93c-2.11-.66-5.85-.92-10.52-.92H887.6V149c4.2,0,6.07-1.19,6.07-3.69V82.61c0-2.5-1.63-3.82-6.07-3.82V77.07h45.09c6.77,0,10.75-.53,12.62-1.06l5.84,13.2-4,.53c-1.86-2.51-4-3.43-8.41-3.43H915.63v19.41h17.53c5.6,0,7.71-1.59,7.71-3.7h4.44v16.63h-4.44c0-2.24-1.64-3.56-7.71-3.56H915.63v26.66h22.2c5.37,0,7-1.05,9.58-3.56Z" transform="translate(-55.36 -57.4)"/><path class="cls-1" d="M1030.11,137.92l-5.61,13.73a27.07,27.07,0,0,0-5.6-.39c-4,0-7.71.66-12.15.66-26.87,0-38.55-14-38.55-38.28,0-24,13.78-37.49,38.78-37.49,4.91,0,9.81.79,12.62.79a37.56,37.56,0,0,0,5.37-.53l4.91,13.07-3.27.79c-3-3.17-6.78-4.62-14.26-4.62-13.08,0-21.72,9-21.72,28,0,21.25,7.24,28.64,20.56,28.64,8.41,0,13.08-1.85,15.42-4.88Z" transform="translate(-55.36 -57.4)"/><path class="cls-1" d="M1126.37,150.86h-34.81V149c4.2,0,6.77-1.19,6.77-3.69V115H1073.1v30.36c0,2.37,2.34,3.69,7,3.69v1.85h-35V149c4.21,0,6.08-1.19,6.08-3.69V82.61c0-2.5-1.4-3.82-6.08-3.82V77.07h35v1.72c-4.91,0-7,1.32-7,3.82v23.11h25.23V82.61c0-2.5-2.1-3.82-6.77-3.82V77.07h34.81v1.72c-4.91,0-5.84,1.32-5.84,3.82v62.71c0,2.37,1.17,3.69,5.84,3.69Z" transform="translate(-55.36 -57.4)"/><path class="cls-1" d="M1220.06,150.86H1193a21.93,21.93,0,0,0,.46-4.09V131.46l-25.93-30.23v44.09c0,2.37,1.63,3.69,6.07,3.69v1.85h-32.24V149c4.44,0,6.08-1.32,6.08-3.69V82.61c0-2.5-1.41-3.82-6.08-3.82V77.07h27.1a12.55,12.55,0,0,0,2.57,4.75l22.67,27.46V82.61c0-2.37-1.64-3.82-6.31-3.82V77.07h32.71v1.72c-4.21,0-6.08,1.45-6.08,3.82v62.71c0,2.64,2.34,3.69,6.08,3.69Z" transform="translate(-55.36 -57.4)"/><path class="cls-1" d="M1272.16,151.92c-24.53,0-36.45-9.11-36.45-39.47,0-27.06,14-36.3,36.45-36.3,23.13,0,36.68,9.1,36.68,36.17C1308.84,142.68,1296.69,151.92,1272.16,151.92Zm0-66.14c-8.88,0-13.79,5-13.79,26.67,0,22.44,4.68,29.7,13.79,29.7,8.41,0,14-6.73,14-29.7C1286.18,90.54,1281,85.78,1272.16,85.78Z" transform="translate(-55.36 -57.4)"/><path class="cls-1" d="M1389.91,138.32l-6.54,13.33c-2.34-.66-4.91-.79-12.15-.79h-46.73V149c4.21,0,6.08-1.19,6.08-3.69V82.61c0-2.5-1.4-3.82-6.08-3.82V77.07h35v1.72c-4.91,0-7,1.32-7,3.82v59.14H1375c5.61,0,10.28-1.32,11.92-4Z" transform="translate(-55.36 -57.4)"/><path class="cls-1" d="M1439,151.92c-24.54,0-36.45-9.11-36.45-39.47,0-27.06,14-36.3,36.45-36.3,23.13,0,36.68,9.1,36.68,36.17C1475.66,142.68,1463.51,151.92,1439,151.92Zm0-66.14c-8.88,0-13.79,5-13.79,26.67,0,22.44,4.67,29.7,13.79,29.7,8.41,0,14-6.73,14-29.7C1453,90.54,1447.85,85.78,1439,85.78Z" transform="translate(-55.36 -57.4)"/><path class="cls-1" d="M1569.11,115.09c-4.44,0-5.84,1-5.84,3.56v23c0,1.32.23,4.36,1.87,5.68-5.61,1.85-14.49,4.48-33.18,4.48-26.17,0-40-10.82-40-38.41,0-26.93,18.22-37.09,40-37.09,4.44,0,11.22.79,14.49.79a31.2,31.2,0,0,0,5.14-.66l4.44,13.2-3.51.66c-3.5-3.3-7.47-4.35-16.12-4.35-14,0-21.49,6.86-21.49,27.32,0,23.63,6.54,29,21.26,29,1.17,0,4-.26,5.14-.4V118.65c0-2.51-3-3.56-7.24-3.56v-1.85h35Z" transform="translate(-55.36 -57.4)"/><path class="cls-1" d="M1650,78.79c-3,0-4.44,1-5.37,2.77l-22.9,42.64v21.12c0,2.5,2.57,3.69,7.48,3.69v1.85h-36.45V149c4.67,0,7.24-1.19,7.24-3.69V124.2l-22.43-42.38c-1.17-2.24-2.57-3-5.6-3V77.07h32v1.72c-3.5,0-4.2.79-4.2,1.71a12.24,12.24,0,0,0,.7,2.77l11.21,26.67L1624,82.75a6.25,6.25,0,0,0,.46-2c0-1.19-.93-2-4.44-2V77.07H1650Z" transform="translate(-55.36 -57.4)"/><path class="cls-1" d="M219.56,186.67a58.19,58.19,0,0,0-10.66-.92c-2.92,0-4.22.73-4.22,2.36,0,1.2.82,1.68,3,1.73,5.08.09,6.48.24,7.82.86,1.78.86,2.64,2.4,2.64,4.85a16.16,16.16,0,0,1-3.74,9.69c-2.45,2.6-6.58,3.84-12.48,3.84a61.13,61.13,0,0,1-13.49-1.58l1.92-7.92a57.63,57.63,0,0,0,10.51,1c2.06,0,2.88-.19,3.55-.77a2.41,2.41,0,0,0,.87-1.73,1.23,1.23,0,0,0-.77-1.25c-.58-.24-.68-.24-4.47-.33-2.83-.1-4.46-.34-5.61-1-1.64-.87-2.6-2.88-2.6-5.43,0-4.27,1.88-8.78,4.56-11.13s6.68-3.32,12.15-3.32a57.48,57.48,0,0,1,13.3,1.54Z" transform="translate(-55.36 -57.4)"/><path class="cls-1" d="M249.66,183.35c1.87,1.59,2.73,3.75,2.73,7a22.39,22.39,0,0,1-4.27,13c-3.22,4.37-7.58,6.2-14.88,6.2-9.27,0-12.91-3-12.91-10.66,0-6,2.64-12.19,6.48-15.07,2.68-2.12,6.86-3.12,12.57-3.12C244.42,180.67,247.26,181.43,249.66,183.35Zm-16.42,9.17a10,10,0,0,0-1.35,5.09c0,2.31,1,3.46,3.08,3.46a4.61,4.61,0,0,0,3.88-2.16,12.18,12.18,0,0,0,1.73-5.76c0-2-1-2.88-3.16-2.88A4.4,4.4,0,0,0,233.24,192.52Z" transform="translate(-55.36 -57.4)"/><path class="cls-1" d="M263.77,208.46H251.62l8-33.46h12.19Z" transform="translate(-55.36 -57.4)"/><path class="cls-1" d="M289.59,208.46H273.94l-1.92-27h12.2l.24,3.17c.24,3.27.28,4.71.28,6.44a43.67,43.67,0,0,1-.81,7.48h.29a48.18,48.18,0,0,1,4.7-12.09l2.59-5h11.76Z" transform="translate(-55.36 -57.4)"/><path class="cls-1" d="M312,198.24a5.2,5.2,0,0,0,0,.86c0,2.11,1.49,2.88,5.76,2.88a48.37,48.37,0,0,0,10.51-1.49l-3,7.11a45,45,0,0,1-12.87,1.87c-8.2,0-12-3-12-9.46,0-5.9,2.3-12.38,5.61-15.7,2.64-2.68,6.67-3.93,12.63-3.93,8.88,0,12.62,2.49,12.62,8.45,0,2.64-.53,5-2,9.41Zm9.36-6.2a7,7,0,0,0,.14-1.29c0-1.78-1.2-2.69-3.5-2.69a4.77,4.77,0,0,0-5,4Z" transform="translate(-55.36 -57.4)"/><path class="cls-1" d="M368.12,176.44c5.76,0,8.16.48,9.7,1.87a7.1,7.1,0,0,1,2.11,5.52A18.26,18.26,0,0,1,375.61,195a13.66,13.66,0,0,1-7.2,4.13c-1.87.38-3.7.48-8.69.48h-2.45l-2.11,8.88H342.29l7.68-32Zm-9,15.65h.72c2.79,0,4.23-.24,5.09-.91a5.19,5.19,0,0,0,2.07-4.13c0-1.87-1-2.3-5-2.3h-1.15Z" transform="translate(-55.36 -57.4)"/><path class="cls-1" d="M401.24,193.87c-1.2-.1-1.73-.15-2.45-.15a9.24,9.24,0,0,0-5.09,1.3c-1.1.77-2.11,2.74-2.78,5.52L389,208.46H376.85l6.48-27h10.9a4,4,0,0,1-.19.72l-.48,2.36c-.05.19-.29,1.05-.63,2.35,0,0-.09.53-.24,1.15h.15c1.2-3,2.11-4.37,3.5-5.42a7.69,7.69,0,0,1,4.71-1.54,12.59,12.59,0,0,1,3.17.38Z" transform="translate(-55.36 -57.4)"/><path class="cls-1" d="M431,183.35c1.87,1.59,2.74,3.75,2.74,7a22.4,22.4,0,0,1-4.28,13c-3.21,4.37-7.58,6.2-14.88,6.2-9.26,0-12.91-3-12.91-10.66,0-6,2.64-12.19,6.48-15.07,2.69-2.12,6.87-3.12,12.58-3.12C425.72,180.67,428.55,181.43,431,183.35Zm-16.42,9.17a10.12,10.12,0,0,0-1.34,5.09c0,2.31,1,3.46,3.07,3.46a4.62,4.62,0,0,0,3.89-2.16,12.3,12.3,0,0,0,1.73-5.76c0-2-1-2.88-3.17-2.88A4.41,4.41,0,0,0,414.53,192.52Z" transform="translate(-55.36 -57.4)"/><path class="cls-1" d="M452.31,177.88a63.06,63.06,0,0,1-2.4,8.74h.29c2.35-4.51,4.85-6,10.37-6,5.9,0,8.4,2.16,8.4,7.25a39.48,39.48,0,0,1-3.17,13.2c-2.31,5.18-6.53,7.87-12.43,7.87-4.71,0-6.58-1.39-7.11-5.33h-.14c-.34,2-.48,2.64-1,4.8H432.92L441,175h12ZM449,192.52a11.09,11.09,0,0,0-1.49,5.09,2.66,2.66,0,0,0,3,2.88,4.57,4.57,0,0,0,4.08-2.49,11.93,11.93,0,0,0,1.25-4.56c0-1.88-.87-2.69-3-2.69A4.42,4.42,0,0,0,449,192.52Z" transform="translate(-55.36 -57.4)"/><path class="cls-1" d="M480,208.46H467.81l8-33.46H488Z" transform="translate(-55.36 -57.4)"/><path class="cls-1" d="M497.57,198.24a5.2,5.2,0,0,0-.05.86c0,2.11,1.49,2.88,5.77,2.88a48.45,48.45,0,0,0,10.51-1.49l-3,7.11a45,45,0,0,1-12.86,1.87c-8.21,0-12.05-3-12.05-9.46,0-5.9,2.3-12.38,5.62-15.7,2.64-2.68,6.67-3.93,12.62-3.93,8.88,0,12.63,2.49,12.63,8.45,0,2.64-.53,5-2,9.41Zm9.36-6.2a7.18,7.18,0,0,0,.15-1.29c0-1.78-1.2-2.69-3.51-2.69a4.77,4.77,0,0,0-5,4Z" transform="translate(-55.36 -57.4)"/><path class="cls-1" d="M550.76,208.46,554,194.83a13.21,13.21,0,0,0,.48-3c0-1.1-.72-1.72-2-1.72a3,3,0,0,0-2.6,1.39,25.5,25.5,0,0,0-1.15,3.36l-3.26,13.63H533.33l3.27-13.63a13.13,13.13,0,0,0,.48-3c0-1.1-.77-1.73-2.07-1.73-2,0-3,1.2-3.84,4.56l-3.31,13.78h-12.1l6.48-27h11.28l-.48,1.92-.38,1.25-.14.53c0,.14-.15.48-.34,1h.19c2.4-4,5.28-5.57,10.32-5.57,3.08,0,5.09.72,6.24,2.21a5.4,5.4,0,0,1,1,3.36h.24c1.16-2.4,2-3.36,3.84-4.23a14.43,14.43,0,0,1,6.34-1.29c4.71,0,7.2,1.87,7.2,5.33a24.7,24.7,0,0,1-.81,5.61l-4.08,16.9Z" transform="translate(-55.36 -57.4)"/><path class="cls-1" d="M595.92,189.88a76.82,76.82,0,0,0-8.44-.48,15.81,15.81,0,0,0-3.84.24,1.81,1.81,0,0,0-1.35,1.68,1,1,0,0,0,.58,1c.72.29.91.29,4.94.29,5.57,0,7.59,1.25,7.59,4.71a13.56,13.56,0,0,1-2.88,7.92c-2.31,2.83-6,4-12.24,4a56.86,56.86,0,0,1-13.16-1.35L568.8,201a65.63,65.63,0,0,0,9,.72c3.45,0,4.7-.57,4.7-2.11,0-.77-.67-1.06-2.49-1.06l-2.4,0c-2.93,0-4.37-.19-5.43-.77-1.68-.86-2.5-2.4-2.5-4.75a17.75,17.75,0,0,1,1.73-6.91c1.83-3.84,6-5.62,13.2-5.62a65.09,65.09,0,0,1,13.21,1.39Z" transform="translate(-55.36 -57.4)"/><path class="cls-1" d="M624.24,197.23h-15.6l1.92-8h15.6Z" transform="translate(-55.36 -57.4)"/><path class="cls-1" d="M648.63,208.46H635.76l7.68-32h12.87Z" transform="translate(-55.36 -57.4)"/><path class="cls-1" d="M670,183.4a5.47,5.47,0,0,1-.29,1.06,7.5,7.5,0,0,0-.43,2.06c2.3-4.13,5.42-5.81,10.89-5.81,5.14,0,8.12,2.07,8.12,5.72a27.37,27.37,0,0,1-.72,5.42l-4,16.61H671.38L674.6,195a15.1,15.1,0,0,0,.57-3.07c0-1.15-.81-1.83-2.3-1.83-2.31,0-3.75,1.54-4.56,4.9l-3.22,13.44H653l6.48-27h11Z" transform="translate(-55.36 -57.4)"/><path class="cls-1" d="M708.15,181.43h8.35l-2.21,9.08H706l-1.54,6.29a17.64,17.64,0,0,0-.48,3.07c0,1.39.91,2,3,2a18.16,18.16,0,0,0,4-.44L709.35,208a58.43,58.43,0,0,1-10.28,1c-5.66,0-8.06-1.44-8.06-4.85a12.4,12.4,0,0,1,.34-2.88l2.4-10.7h-3.6l1.39-5.86A91.77,91.77,0,0,0,702.39,176h7.1Z" transform="translate(-55.36 -57.4)"/><path class="cls-1" d="M726.05,198.24a5.2,5.2,0,0,0,0,.86c0,2.11,1.49,2.88,5.76,2.88a48.44,48.44,0,0,0,10.52-1.49l-3,7.11a45,45,0,0,1-12.86,1.87c-8.21,0-12-3-12-9.46,0-5.9,2.3-12.38,5.61-15.7,2.64-2.68,6.68-3.93,12.63-3.93,8.88,0,12.62,2.49,12.62,8.45,0,2.64-.52,5-2,9.41Zm9.36-6.2a7.18,7.18,0,0,0,.15-1.29c0-1.78-1.2-2.69-3.51-2.69a4.77,4.77,0,0,0-5,4Z" transform="translate(-55.36 -57.4)"/><path class="cls-1" d="M775.83,202.32c-1,4.27-1.83,5.9-3.79,7.92-3.12,3.21-7.73,4.65-14.74,4.65a61.14,61.14,0,0,1-12.58-1.39l.72-6.48a46.41,46.41,0,0,0,9.79,1.25c3.56,0,6.29-.91,7.54-2.5.43-.53.43-.53,1.06-2.54a21.44,21.44,0,0,1,.72-2.21h-.24c-2.55,3.65-5.19,5-9.8,5-5.61,0-8.3-2.4-8.3-7.34,0-4.56,1.87-10.47,4.27-13.59s5.62-4.46,10.18-4.46c3.07,0,5.23.72,6.29,2.16.62.81.86,1.68,1.1,3.6h.24a22.19,22.19,0,0,1,.87-4.47l.09-.48h11.62Zm-17.48-5.86c0,1.92,1,2.83,2.93,2.83a4.74,4.74,0,0,0,3.51-1.73,9.67,9.67,0,0,0,1.82-5.32c0-1.64-1.1-2.64-3-2.64C760.52,189.6,758.35,192.38,758.35,196.46Z" transform="translate(-55.36 -57.4)"/><path class="cls-1" d="M803.14,193.87c-1.2-.1-1.73-.15-2.45-.15a9.24,9.24,0,0,0-5.09,1.3c-1.1.77-2.11,2.74-2.78,5.52l-1.92,7.92H778.75l6.48-27h10.9a4,4,0,0,1-.19.72l-.48,2.36c-.05.19-.29,1.05-.63,2.35,0,0-.09.53-.24,1.15h.15c1.2-3,2.11-4.37,3.5-5.42a7.69,7.69,0,0,1,4.71-1.54,12.46,12.46,0,0,1,3.16.38Z" transform="translate(-55.36 -57.4)"/><path class="cls-1" d="M832.66,208.46H820.51a30.27,30.27,0,0,1,1.54-5.47h-.24c-2.26,4.37-4.8,5.9-10,5.9-5.57,0-8.45-2.78-8.45-8.25a33.15,33.15,0,0,1,3.36-13.54c2.45-4.66,6-6.72,11.28-6.72s7.58,1.82,7.58,6.14v.68h.24l.19-1c.1-.72.24-1.44.39-2.16a14.34,14.34,0,0,1,.57-2.6h12.15Zm-16.75-10.85c0,1.87,1,2.83,3,2.83a4.32,4.32,0,0,0,4.08-2.68,13.94,13.94,0,0,0,1.25-4.66c.1-1.68-1.06-2.64-3.12-2.64C818,190.46,815.91,193.39,815.91,197.61Z" transform="translate(-55.36 -57.4)"/><path class="cls-1" d="M857.23,181.43h8.36l-2.21,9.08h-8.31l-1.53,6.29a17.64,17.64,0,0,0-.48,3.07c0,1.39.91,2,3,2a18.19,18.19,0,0,0,4-.44L858.43,208a58.31,58.31,0,0,1-10.27,1c-5.66,0-8.06-1.44-8.06-4.85a12.37,12.37,0,0,1,.33-2.88l2.4-10.7h-3.6l1.39-5.86A90.15,90.15,0,0,0,851.47,176h7.11Z" transform="translate(-55.36 -57.4)"/><path class="cls-1" d="M875.14,198.24a5.2,5.2,0,0,0,0,.86c0,2.11,1.49,2.88,5.76,2.88a48.37,48.37,0,0,0,10.51-1.49l-3,7.11a45,45,0,0,1-12.87,1.87c-8.21,0-12.05-3-12.05-9.46,0-5.9,2.31-12.38,5.62-15.7,2.64-2.68,6.67-3.93,12.63-3.93,8.88,0,12.62,2.49,12.62,8.45,0,2.64-.53,5-2,9.41Zm9.36-6.2a8,8,0,0,0,.14-1.29c0-1.78-1.2-2.69-3.5-2.69a4.77,4.77,0,0,0-5,4Z" transform="translate(-55.36 -57.4)"/><path class="cls-1" d="M937.11,186.67a58.19,58.19,0,0,0-10.66-.92c-2.93,0-4.22.73-4.22,2.36,0,1.2.81,1.68,3,1.73,5.09.09,6.48.24,7.83.86,1.77.86,2.64,2.4,2.64,4.85a16.11,16.11,0,0,1-3.75,9.69c-2.45,2.6-6.57,3.84-12.48,3.84A61.13,61.13,0,0,1,906,207.5l1.92-7.92a57.79,57.79,0,0,0,10.51,1c2.07,0,2.89-.19,3.56-.77a2.43,2.43,0,0,0,.86-1.73,1.23,1.23,0,0,0-.77-1.25c-.57-.24-.67-.24-4.46-.33-2.83-.1-4.47-.34-5.62-1-1.63-.87-2.59-2.88-2.59-5.43,0-4.27,1.87-8.78,4.56-11.13s6.67-3.32,12.15-3.32a57.39,57.39,0,0,1,13.29,1.54Z" transform="translate(-55.36 -57.4)"/><path class="cls-1" d="M967.2,183.35c1.87,1.59,2.74,3.75,2.74,7a22.46,22.46,0,0,1-4.27,13c-3.22,4.37-7.59,6.2-14.89,6.2-9.26,0-12.91-3-12.91-10.66,0-6,2.64-12.19,6.48-15.07,2.69-2.12,6.87-3.12,12.58-3.12C962,180.67,964.8,181.43,967.2,183.35Zm-16.42,9.17a10.12,10.12,0,0,0-1.34,5.09c0,2.31,1,3.46,3.07,3.46a4.62,4.62,0,0,0,3.89-2.16,12.3,12.3,0,0,0,1.73-5.76c0-2-1-2.88-3.17-2.88A4.41,4.41,0,0,0,950.78,192.52Z" transform="translate(-55.36 -57.4)"/><path class="cls-1" d="M981.31,208.46H969.17l8-33.46h12.2Z" transform="translate(-55.36 -57.4)"/><path class="cls-1" d="M1017.27,196.56c-1.3,5.32-2.45,7.58-5,9.45-3,2.21-7.15,3.36-12.29,3.36-7.82,0-12.43-2.64-12.43-7.15a34.3,34.3,0,0,1,1.11-6.91L992,181.43h12.14l-3.93,16.28a11.93,11.93,0,0,0-.44,2.64c0,1,.72,1.53,1.83,1.53a2.53,2.53,0,0,0,2.21-1.1,18.32,18.32,0,0,0,1.1-3.22l3.84-16.13h12.19Z" transform="translate(-55.36 -57.4)"/><path class="cls-1" d="M1039,181.43h8.35l-2.21,9.08h-8.3l-1.54,6.29a17.64,17.64,0,0,0-.48,3.07c0,1.39.91,2,3,2a18.16,18.16,0,0,0,4-.44l-1.63,6.58a58.4,58.4,0,0,1-10.27,1c-5.67,0-8.07-1.44-8.07-4.85a12.4,12.4,0,0,1,.34-2.88l2.4-10.7H1021l1.39-5.86a91.77,91.77,0,0,0,10.85-8.69h7.1Z" transform="translate(-55.36 -57.4)"/><path class="cls-1" d="M1055.9,208.46h-12.14l6.48-27a63,63,0,0,0,6.58.34,38.84,38.84,0,0,0,5.56-.34Zm-.28-28.51a13.32,13.32,0,0,1-3.8-.39c-.48-.19-.67-.67-.67-1.53a5.82,5.82,0,0,1,.91-3.12c.39-.48.72-.63,2-.72a15.18,15.18,0,0,1,1.83-.15h3.6c3.4,0,4,.24,4,1.78a5.13,5.13,0,0,1-1.15,3.41c-.58.57-1.49.72-3.79.72Z" transform="translate(-55.36 -57.4)"/><path class="cls-1" d="M1091.18,183.35c1.88,1.59,2.74,3.75,2.74,7a22.39,22.39,0,0,1-4.27,13c-3.22,4.37-7.59,6.2-14.88,6.2-9.27,0-12.92-3-12.92-10.66,0-6,2.64-12.19,6.48-15.07,2.69-2.12,6.87-3.12,12.58-3.12C1086,180.67,1088.78,181.43,1091.18,183.35Zm-16.41,9.17a10,10,0,0,0-1.35,5.09c0,2.31,1,3.46,3.08,3.46a4.62,4.62,0,0,0,3.88-2.16,12.18,12.18,0,0,0,1.73-5.76c0-2-1-2.88-3.17-2.88A4.4,4.4,0,0,0,1074.77,192.52Z" transform="translate(-55.36 -57.4)"/><path class="cls-1" d="M1110.19,183.4a4.84,4.84,0,0,1-.29,1.06,8.33,8.33,0,0,0-.43,2.06c2.31-4.13,5.43-5.81,10.9-5.81,5.13,0,8.11,2.07,8.11,5.72a27.37,27.37,0,0,1-.72,5.42l-4,16.61h-12.15L1114.8,195a15.44,15.44,0,0,0,.58-3.07c0-1.15-.82-1.83-2.31-1.83-2.3,0-3.74,1.54-4.56,4.9l-3.22,13.44h-12.14l6.48-27h11Z" transform="translate(-55.36 -57.4)"/><path class="cls-1" d="M1157,189.88a77.11,77.11,0,0,0-8.45-.48,15.86,15.86,0,0,0-3.84.24,1.8,1.8,0,0,0-1.34,1.68,1,1,0,0,0,.57,1c.72.29.92.29,5,.29,5.57,0,7.58,1.25,7.58,4.71a13.56,13.56,0,0,1-2.88,7.92c-2.3,2.83-6,4-12.24,4a56.83,56.83,0,0,1-13.15-1.35l1.68-6.91a65.62,65.62,0,0,0,9,.72c3.46,0,4.71-.57,4.71-2.11,0-.77-.67-1.06-2.5-1.06l-2.4,0c-2.93,0-4.37-.19-5.42-.77-1.68-.86-2.5-2.4-2.5-4.75a17.57,17.57,0,0,1,1.73-6.91c1.82-3.84,6-5.62,13.2-5.62a65,65,0,0,1,13.2,1.39Z" transform="translate(-55.36 -57.4)"/><path class="cls-1" d="M1185.36,197.23h-15.6l1.92-8h15.6Z" transform="translate(-55.36 -57.4)"/><path class="cls-1" d="M1212.09,198.33h10.66l-2.4,10.13h-23.47l7.68-32h12.82Z" transform="translate(-55.36 -57.4)"/><path class="cls-1" d="M1253.47,183.35c1.87,1.59,2.74,3.75,2.74,7a22.46,22.46,0,0,1-4.27,13c-3.22,4.37-7.59,6.2-14.89,6.2-9.26,0-12.91-3-12.91-10.66,0-6,2.64-12.19,6.48-15.07,2.69-2.12,6.87-3.12,12.58-3.12C1248.24,180.67,1251.07,181.43,1253.47,183.35Zm-16.42,9.17a10.12,10.12,0,0,0-1.34,5.09c0,2.31,1,3.46,3.07,3.46a4.62,4.62,0,0,0,3.89-2.16,12.3,12.3,0,0,0,1.73-5.76c0-2-1-2.88-3.17-2.88A4.41,4.41,0,0,0,1237.05,192.52Z" transform="translate(-55.36 -57.4)"/><path class="cls-1" d="M1276.75,208.46H1261.1l-1.92-27h12.2l.23,3.17c.24,3.27.29,4.71.29,6.44a43.67,43.67,0,0,1-.81,7.48h.29a48.18,48.18,0,0,1,4.7-12.09l2.59-5h11.76Z" transform="translate(-55.36 -57.4)"/><path class="cls-1" d="M1299.12,198.24a5.2,5.2,0,0,0,0,.86c0,2.11,1.49,2.88,5.76,2.88a48.37,48.37,0,0,0,10.51-1.49l-3,7.11a45,45,0,0,1-12.87,1.87c-8.2,0-12-3-12-9.46,0-5.9,2.3-12.38,5.61-15.7,2.64-2.68,6.67-3.93,12.63-3.93,8.88,0,12.62,2.49,12.62,8.45,0,2.64-.53,5-2,9.41Zm9.36-6.2a7,7,0,0,0,.14-1.29c0-1.78-1.2-2.69-3.5-2.69a4.77,4.77,0,0,0-5,4Z" transform="translate(-55.36 -57.4)"/><path class="cls-1" d="M1353.31,176.44c6.1,0,8.79.67,10.75,2.64a9.59,9.59,0,0,1,2.6,6.87,32.44,32.44,0,0,1-3.8,13.63q-3.73,6.69-10.36,8.21c-2.41.57-5.86.72-15.22.72-1.06,0-4.51,0-7.83,0l7.68-32ZM1344,199.53h1.1c3.27,0,5.33-.91,6.68-2.88a14.53,14.53,0,0,0,2-6.86c0-2.4-1.25-3.22-5.09-3.22h-1.58Z" transform="translate(-55.36 -57.4)"/><path class="cls-1" d="M1396.13,183.35c1.87,1.59,2.73,3.75,2.73,7a22.39,22.39,0,0,1-4.27,13c-3.22,4.37-7.58,6.2-14.88,6.2-9.27,0-12.91-3-12.91-10.66,0-6,2.64-12.19,6.48-15.07,2.68-2.12,6.86-3.12,12.57-3.12C1390.89,180.67,1393.73,181.43,1396.13,183.35Zm-16.42,9.17a10.12,10.12,0,0,0-1.34,5.09c0,2.31,1,3.46,3.07,3.46a4.63,4.63,0,0,0,3.89-2.16,12.29,12.29,0,0,0,1.72-5.76c0-2-1-2.88-3.16-2.88A4.4,4.4,0,0,0,1379.71,192.52Z" transform="translate(-55.36 -57.4)"/><path class="cls-1" d="M1410.29,208.46h-12.15l6.48-27a63,63,0,0,0,6.58.34,39.08,39.08,0,0,0,5.57-.34ZM1410,180a13.18,13.18,0,0,1-3.79-.39c-.49-.19-.68-.67-.68-1.53a5.74,5.74,0,0,1,.92-3.12c.38-.48.72-.63,2-.72a15.18,15.18,0,0,1,1.83-.15h3.6c3.41,0,4,.24,4,1.78a5.13,5.13,0,0,1-1.15,3.41c-.58.57-1.49.72-3.79.72Z" transform="translate(-55.36 -57.4)"/><path class="cls-1" d="M1431.5,183.4a4.84,4.84,0,0,1-.29,1.06,8.33,8.33,0,0,0-.43,2.06c2.3-4.13,5.43-5.81,10.9-5.81,5.13,0,8.11,2.07,8.11,5.72a27.37,27.37,0,0,1-.72,5.42l-4,16.61h-12.15l3.22-13.44a15.44,15.44,0,0,0,.58-3.07c0-1.15-.82-1.83-2.31-1.83-2.3,0-3.74,1.54-4.56,4.9l-3.22,13.44h-12.14l6.48-27h11Z" transform="translate(-55.36 -57.4)"/><path class="cls-1" d="M1480.8,202.32c-1,4.27-1.83,5.9-3.79,7.92-3.12,3.21-7.73,4.65-14.74,4.65a61.14,61.14,0,0,1-12.58-1.39l.72-6.48a46.41,46.41,0,0,0,9.79,1.25c3.56,0,6.29-.91,7.54-2.5.43-.53.43-.53,1.06-2.54a21.44,21.44,0,0,1,.72-2.21h-.24c-2.55,3.65-5.19,5-9.8,5-5.61,0-8.3-2.4-8.3-7.34,0-4.56,1.87-10.47,4.27-13.59s5.62-4.46,10.18-4.46c3.07,0,5.23.72,6.29,2.16.62.81.86,1.68,1.1,3.6h.24a22.19,22.19,0,0,1,.87-4.47l.09-.48h11.62Zm-17.47-5.86c0,1.92,1,2.83,2.92,2.83a4.74,4.74,0,0,0,3.51-1.73,9.67,9.67,0,0,0,1.82-5.32c0-1.64-1.1-2.64-3-2.64C1465.49,189.6,1463.33,192.38,1463.33,196.46Z" transform="translate(-55.36 -57.4)"/><path class="cls-1" d="M1508.49,208.46h-12.86l7.68-32h12.86Z" transform="translate(-55.36 -57.4)"/><path class="cls-1" d="M1533.26,181.43h8.35l-2.2,9.08h-8.31l-1.54,6.29a18.69,18.69,0,0,0-.48,3.07c0,1.39.92,2,3,2a18.16,18.16,0,0,0,4-.44l-1.63,6.58a58.4,58.4,0,0,1-10.27,1c-5.67,0-8.07-1.44-8.07-4.85a12.4,12.4,0,0,1,.34-2.88l2.4-10.7h-3.6l1.39-5.86A91.77,91.77,0,0,0,1527.5,176h7.1Z" transform="translate(-55.36 -57.4)"/><polyline class="cls-2" points="0 479.36 1272.84 474.43 1617.28 263.31"/><path class="cls-3" d="M1170.6,347.17c-3.65-.64-5.24,2.23-6.91,4.9a3.15,3.15,0,0,0-.2,1.56c1.91-.47,3.63-1,5.38-1.3,3.54-.64,5-2.68,4.46-6.27-.65-4.06-1.3-8.11-2-12.45,2.54,0,4.76-1.74,7.17-.05.32.22,1,0,1.42,0,5.35-.37,10.7-.72,16-1.14,1.2-.1,2.37-.59,3.57-.68a8.31,8.31,0,0,1,2.36.47,6.63,6.63,0,0,0,1.51.4,48.81,48.81,0,0,0,6.06-.26c1.43-.19,2.79-1,4.22-1.18a2.61,2.61,0,0,1,2.12,1.36,49.64,49.64,0,0,0,7,16.51c2,3.13,3.72,6.38,5.75,9.45a9.17,9.17,0,0,0,5.16,4c-.07-.86-.13-1.45-.17-2a10.15,10.15,0,0,1,1.74-7.13,73.38,73.38,0,0,0,5.18-7.61c2-3.59,5.66-5.14,9-7.74a36.81,36.81,0,0,1-.13,4.13c-.76,5.1.78,9.68,2.75,14.29a24.3,24.3,0,0,0,5.78,8.48,22.2,22.2,0,0,0,5.2,3.92c-2.52-.08-5-.11-7.56-.23-4.64-.23-9.26-.53-13.9-.76-3.2-.15-6.4-.17-9.6-.36-1.9-.11-3.74-.08-5.51-1.41a9.91,9.91,0,0,1-4.09-6.3,21.7,21.7,0,0,0-22.4-16.64,22.09,22.09,0,0,0-20.7,20c-.06.83-.1,1.66-.14,2.36l-34.89,5.6a22.27,22.27,0,0,0-11.45-13.25,21.27,21.27,0,0,0-12.81-2c-10.38,1.6-16.42,8.18-19,20.93-3.78-1.73-8.25-.63-11.84-3.21-.54-.38-1.46-.23-2.4-.35l-1.41-8.77c1.38-.53,3.21-.69,3.8-1.63s.23-2.83.25-4.29c.07-6.05.13-12.1.2-18.36l10.64-1.71,10.49-1.68-3.11-19.41c2.17,2.19,3.82,3.77,4.25,6.49.55,3.52,1.68,6.95,2.5,10.42a6.76,6.76,0,0,1-.11,1.78l4.72-.76-.23-.48a10.6,10.6,0,0,1,2.56-1.37c2.25-.51,4.54-.82,6.82-1.13,1.1-.15,1.5-.57,1.47-1.75-.14-5.57-.18-11.15-.25-16.72,0-.69,0-1.38,0-2.26,6-1,11.93-1.81,17.82-2.9a29.39,29.39,0,0,1,10.16-.1,2.11,2.11,0,0,1,2,1.65q3.93,11.79,8.06,23.51c.58,1.64,1.79,3.06,2.38,4.71C1170.78,341.14,1172.43,343.77,1170.6,347.17Zm-15.31-11.69c.11-.27.22-.4.2-.52-1.22-7.79-2.43-15.58-3.72-23.36-.07-.4-.83-1-1.19-1-3.3.44-6.58,1-10,1.55l4,25Zm-.44-25.33,4.31,26.84,8-1.29a9.68,9.68,0,0,0-.26-1.52q-3.78-11-7.62-22.06C1158.19,308.93,1158.11,308.93,1154.85,310.15Zm-23,3.53c.74,7.08,1.47,14,2.2,21l7.25-1.16L1138,312.71ZM1186,335.16l-.08.48,27.68,5.17c-.22-1.41-.39-2.43-.55-3.45-.4-2.44-1.35-3.26-3.91-3.24-2,0-4,.09-6.06.19-.36,0-.7.33-1.07.43a17.26,17.26,0,0,1-2.63.53c-.49,0-1-.39-1.5-.38C1193.91,335,1190,335.06,1186,335.16Zm-22,20.92a16.63,16.63,0,0,0-2.86-1.3c-.33-.08-1.21.6-1.17.75.42,1.49-.79,2.44-1,3.57-.3,1.47.33,3.21.86,4.73a8.34,8.34,0,0,0,1.88,2.66c.32.35,1.14.7,1.43.53a17.1,17.1,0,0,0,2.37-2.13c-.34-2.1-.75-4.69-1.18-7.28C1164.21,356.94,1164.05,356.28,1164,356.08Z" transform="translate(-55.36 -57.4)"/><path class="cls-3" d="M1120,357.62a20.21,20.21,0,1,1-16.82,23.12A20.34,20.34,0,0,1,1120,357.62Zm-6.5,21.61a9.86,9.86,0,0,0,11.32,8.07,10,10,0,0,0,8.09-11.17,9.8,9.8,0,0,0-11.4-8.2A9.7,9.7,0,0,0,1113.54,379.23Z" transform="translate(-55.36 -57.4)"/><path class="cls-3" d="M1221.12,361.87A20.16,20.16,0,1,1,1198,345.12,20.14,20.14,0,0,1,1221.12,361.87Zm-29.57,4.67a9.78,9.78,0,1,0,8.39-11.2A9.69,9.69,0,0,0,1191.55,366.54Z" transform="translate(-55.36 -57.4)"/><path class="cls-4" d="M1155.29,335.48l-10.68,1.71-4-25c3.4-.55,6.68-1.11,10-1.55.36-.05,1.12.59,1.19,1,1.29,7.78,2.5,15.57,3.72,23.36C1155.51,335.08,1155.4,335.21,1155.29,335.48Z" transform="translate(-55.36 -57.4)"/><path class="cls-4" d="M1154.85,310.15c3.26-1.22,3.34-1.22,4.46,2q3.86,11,7.62,22.06a9.68,9.68,0,0,1,.26,1.52l-8,1.29Z" transform="translate(-55.36 -57.4)"/><path class="cls-4" d="M1131.86,313.68l6.1-1,3.35,20.85-7.25,1.16C1133.33,327.71,1132.6,320.76,1131.86,313.68Z" transform="translate(-55.36 -57.4)"/><path class="cls-4" d="M1186,335.16c4-.1,7.92-.21,11.88-.27.5,0,1,.41,1.5.38a17.26,17.26,0,0,0,2.63-.53c.37-.1.71-.41,1.07-.43,2-.1,4-.18,6.06-.19,2.56,0,3.51.8,3.91,3.24.16,1,.33,2,.55,3.45l-27.68-5.17Z" transform="translate(-55.36 -57.4)"/><path class="cls-4" d="M1164,356.08c0,.2.2.86.31,1.53.43,2.59.84,5.18,1.18,7.28a17.1,17.1,0,0,1-2.37,2.13c-.29.17-1.11-.18-1.43-.53a8.34,8.34,0,0,1-1.88-2.66c-.53-1.52-1.16-3.26-.86-4.73.23-1.13,1.44-2.08,1-3.57,0-.15.84-.83,1.17-.75A16.63,16.63,0,0,1,1164,356.08Z" transform="translate(-55.36 -57.4)"/><path class="cls-4" d="M1113.54,379.23a9.7,9.7,0,0,1,8-11.3,9.8,9.8,0,0,1,11.4,8.2,10,10,0,0,1-8.09,11.17A9.86,9.86,0,0,1,1113.54,379.23Zm14.88-2.4a5.17,5.17,0,0,0-5.81-4.42,5.07,5.07,0,0,0-4.6,5.82,5.22,5.22,0,0,0,5.89,4.59A5.3,5.3,0,0,0,1128.42,376.83Z" transform="translate(-55.36 -57.4)"/><path class="cls-4" d="M1191.55,366.54a9.78,9.78,0,1,1,19.36-2.73,9.78,9.78,0,0,1-19.36,2.73Zm8.92-6.63a5.23,5.23,0,0,0-4.52,6,5.39,5.39,0,0,0,5.89,4.45,5.47,5.47,0,0,0,4.67-5.95A5.29,5.29,0,0,0,1200.47,359.91Z" transform="translate(-55.36 -57.4)"/><path class="cls-3" d="M1128.42,376.83a5.3,5.3,0,0,1-4.52,6,5.22,5.22,0,0,1-5.89-4.59,5.07,5.07,0,0,1,4.6-5.82A5.17,5.17,0,0,1,1128.42,376.83Z" transform="translate(-55.36 -57.4)"/><path class="cls-3" d="M1200.47,359.91a5.29,5.29,0,0,1,6,4.46,5.47,5.47,0,0,1-4.67,5.95,5.39,5.39,0,0,1-5.89-4.45A5.23,5.23,0,0,1,1200.47,359.91Z" transform="translate(-55.36 -57.4)"/><path class="cls-5" d="M1341.51,323.57c5.19,25.43-20.42,43.41-47,47-16.07,2.17-26.79-8.44-35.23-20.94-5.07-7.5-11.74-16.31-11.74-26,0-16.55,37.58-47,47-47C1320.48,276.6,1336.41,298.55,1341.51,323.57Z" transform="translate(-55.36 -57.4)"/><path class="cls-5" d="M1339,323.78a31.33,31.33,0,0,1-6.68,26.28c-6.33,7.72-15.31,12.95-24.66,16.18a61.2,61.2,0,0,1-15.18,3.37,24.54,24.54,0,0,1-13.76-3.18c-9.31-5.22-15.37-14.57-21.09-23.27-3.32-5-6.47-10.48-7.36-16.54a17.16,17.16,0,0,1,1.38-9.84c3.1-7.06,8.49-13.11,13.88-18.51a119.35,119.35,0,0,1,18.65-15.44c1.39-.92,2.81-1.8,4.26-2.61.64-.36,1.28-.7,1.94-1l.83-.4c.53-.25-.39.16.14-.07l.47-.2c.52-.21,1.05-.39,1.58-.58s-.42.06.2-.06a6.14,6.14,0,0,0,.72-.15c-.8.23-.29,0,0,0,.53,0-1.17,0,0,0l1.07,0a34.9,34.9,0,0,1,3.54.26c20,2.52,32.85,20.32,38.26,38.41.72,2.42,1.32,4.86,1.83,7.33.34,1.66,5.29,1.07,5-.41-4-19.69-15.51-40.14-36-46.1a45.44,45.44,0,0,0-8-1.56,28,28,0,0,0-6.4-.19,23.93,23.93,0,0,0-8.26,3.07A103.4,103.4,0,0,0,1265.87,293c-6.34,5.74-12.48,12.13-16.91,19.5a26.38,26.38,0,0,0-3.74,9.37c-.83,5.3,1.26,10.89,3.64,15.53a122.27,122.27,0,0,0,10,15.44,59.82,59.82,0,0,0,11.08,12,32.71,32.71,0,0,0,14.31,6.66c6,1.11,12,.24,17.9-1.1,19.05-4.37,41.73-17.35,42.56-39.32a33,33,0,0,0-.66-7.68C1343.67,321.71,1338.73,322.29,1339,323.78Z" transform="translate(-55.36 -57.4)"/><circle class="cls-6" cx="1049.95" cy="257.65" r="2.34"/><ellipse class="cls-6" cx="1053.43" cy="254.23" rx="2.43" ry="3.42"/><circle class="cls-7" cx="1049.22" cy="253.88" r="3.07"/><ellipse class="cls-6" cx="1045.77" cy="250.61" rx="3.45" ry="3.27"/><ellipse class="cls-6" cx="1051.09" cy="248.19" rx="3.49" ry="5.69"/><ellipse class="cls-6" cx="1043.82" cy="248.13" rx="5.07" ry="3.86"/><ellipse class="cls-7" cx="1046.71" cy="243.68" rx="4.38" ry="4.51"/><circle class="cls-6" cx="1040.46" cy="243.43" r="4.26"/></svg>